<?xml version="1.0" encoding="UTF-8" standalone="no"?>
<!-- Created with Inkscape (http://www.inkscape.org/) -->

<svg
   width="458.67151"
   height="134.69766"
   viewBox="0 0 458.67151 134.69766"
   version="1.1"
   id="svg1"
   xmlns:xlink="http://www.w3.org/1999/xlink"
   xmlns="http://www.w3.org/2000/svg"
   xmlns:svg="http://www.w3.org/2000/svg">
  <defs
     id="defs1">
    <rect
       x="355.53836"
       y="49.535683"
       width="597.62402"
       height="160.59149"
       id="rect46" />
    <linearGradient
       id="swatch40">
      <stop
         style="stop-color:#ffffff;stop-opacity:1;"
         offset="0"
         id="stop40" />
    </linearGradient>
    <linearGradient
       id="swatch19">
      <stop
         style="stop-color:#000000;stop-opacity:1;"
         offset="0"
         id="stop19" />
    </linearGradient>
    <linearGradient
       id="swatch18">
      <stop
         style="stop-color:#000000;stop-opacity:1;"
         offset="0"
         id="stop18" />
    </linearGradient>
    <linearGradient
       id="swatch16">
      <stop
         style="stop-color:#000000;stop-opacity:1;"
         offset="0"
         id="stop16" />
    </linearGradient>
    <linearGradient
       id="swatch15">
      <stop
         style="stop-color:#000000;stop-opacity:1;"
         offset="0"
         id="stop15" />
    </linearGradient>
    <linearGradient
       xlink:href="#swatch15"
       id="linearGradient15"
       x1="223.50912"
       y1="119.87419"
       x2="357.05719"
       y2="119.87419"
       gradientUnits="userSpaceOnUse"
       gradientTransform="matrix(0.67277316,0,0,0.67277316,-147.96606,-13.277541)" />
  </defs>
  <path
     style="fill:#ff8700;fill-opacity:1;stroke:url(#linearGradient15);stroke-width:6.72773;stroke-linecap:round;stroke-linejoin:round;stroke-miterlimit:3.7;stroke-dasharray:none;paint-order:normal"
     d="m 7.863237,116.2374 c 16.712029,20.6142 64.593848,20.18404 79.594084,-1.70728 C 109.73764,82.014269 47.144659,3.3630289 47.144659,3.3630289 c 0,0 8.791956,62.8760601 -7.072238,65.7302601 -15.864193,2.85421 -14.244418,-29.65945 -14.244418,-29.65945 0,0 -34.522339,56.37988 -17.964766,76.803561 z"
     id="path4" />
  <path
     d="M 77.285874,108.97136 C 89.493701,82.172639 59.921733,41.036009 59.921733,41.036009 c 0,0 4.761047,38.11951 -15.287984,43.0592 -15.320647,3.7747 -22.29645,-12.12849 -22.29645,-12.12849 0,0 -16.942944,26.19968 -2.674798,40.920701 9.498124,9.7996 49.863755,13.11791 57.623373,-3.91606 z"
     style="fill:#ffcc00;fill-opacity:1;stroke-width:6.72773;stroke-dasharray:none"
     id="path1" />
  <path
     d="m 69.689764,109.26336 c 7.067102,-7.69532 6.888506,-27.775372 -2.981646,-31.202026 -8.097755,-2.811325 -0.575,15.033507 -17.78266,18.576106 -15.868825,3.266969 -19.847049,-7.646462 -25.875105,-1.458559 -3.178725,3.263016 -2.209524,10.517029 1.125886,13.619709 11.108761,10.33363 35.251152,11.6394 45.513525,0.46477 z"
     style="fill:#fdff94;fill-opacity:0.749403;stroke-width:3.41511;stroke-dasharray:none"
     id="path1-4" />
  <text
     xml:space="preserve"
     id="text46"
     style="font-size:96px;text-align:start;word-spacing:-38.34px;writing-mode:lr-tb;direction:ltr;white-space:pre;shape-inside:url(#rect46);opacity:1;fill:#000000;fill-opacity:1;stroke:#000000;stroke-width:5.5;stroke-linecap:round;stroke-linejoin:round;stroke-miterlimit:3.7;stroke-dasharray:none;stroke-opacity:1;paint-order:normal"
     transform="matrix(0.67277316,0,0,0.67277316,-140.44077,21.123779)"><tspan
       x="355.53906"
       y="137.11887"
       id="tspan2"><tspan
         dx="0 0 0 0 0 0 38.34 -38.339996"
         style="font-family:'Courier New';-inkscape-font-specification:'Courier New'"
         id="tspan1">pyOdin Web</tspan></tspan></text>
</svg>
